<?xml version="1.0" encoding="UTF-8" standalone="no"?>
<!DOCTYPE svg PUBLIC "-//W3C//DTD SVG 1.1//EN" "http://www.w3.org/Graphics/SVG/1.1/DTD/svg11.dtd">
<svg width="100%" height="100%" viewBox="0 0 50 50" version="1.1" xmlns="http://www.w3.org/2000/svg" xmlns:xlink="http://www.w3.org/1999/xlink" xml:space="preserve" xmlns:serif="http://www.serif.com/" style="fill-rule:evenodd;clip-rule:evenodd;stroke-linejoin:round;stroke-miterlimit:1.41421;">
    <path d="M49.008,-3.951L-6.697,-3.951L-6.697,49.146C-6.697,49.146 16.068,49.146 32.492,49.146C36.872,49.146 41.073,47.406 44.171,44.308C47.268,41.211 49.008,37.01 49.008,32.629C49.008,17.043 49.008,-3.951 49.008,-3.951Z" style="fill:rgb(129,32,48);"/>
    <clipPath id="_clip1">
        <path d="M49.008,-3.951L-6.697,-3.951L-6.697,49.146C-6.697,49.146 16.068,49.146 32.492,49.146C36.872,49.146 41.073,47.406 44.171,44.308C47.268,41.211 49.008,37.01 49.008,32.629C49.008,17.043 49.008,-3.951 49.008,-3.951Z"/>
    </clipPath>
    <g clip-path="url(#_clip1)">
        <g transform="matrix(1.01024,0.0508932,-0.0508932,1.01024,-0.86523,-3.30149)">
            <g transform="matrix(0.775907,0.630847,-0.630847,0.775907,19.9228,-9.77327)">
                <path d="M47.068,21.695C47.068,20.746 46.298,19.976 45.35,19.976L6.277,19.976C5.329,19.976 4.559,20.746 4.559,21.695L4.559,25.132C4.559,26.081 5.329,26.851 6.277,26.851L45.35,26.851C46.298,26.851 47.068,26.081 47.068,25.132L47.068,21.695Z" style="fill:rgb(235,235,235);"/>
            </g>
            <g transform="matrix(0.652027,-0.758196,0.758196,0.652027,-9.40177,28.9831)">
                <path d="M47.068,21.695C47.068,20.746 46.298,19.976 45.35,19.976L6.277,19.976C5.329,19.976 4.559,20.746 4.559,21.695L4.559,25.132C4.559,26.081 5.329,26.851 6.277,26.851L45.35,26.851C46.298,26.851 47.068,26.081 47.068,25.132L47.068,21.695Z" style="fill:rgb(235,235,235);"/>
            </g>
        </g>
    </g>
</svg>
